# xmcd
#
# Track frame offsets:
#	150
#	9302
#	20678
#	32839
#	50355
#	63382
#	75843
#	86317
#	96588
#	110706
#	119750
#	133310
#	143835
#	156118
#	166222
#	178577
#	189663
#	202193
#	215718
#	227005
#	243247
#
# Disc length: 3451 seconds
#
# Revision: 1
# Processed by: cddbd v1.5.2PL0 Copyright (c) Steve Scherf et al.
# Submitted via: audiograbber 1.83.01
#
DISCID=290d7915
DTITLE=Glen Campbell - The Essential Vol. 3
DYEAR=1995
DGENRE=Country
TTITLE0=Let It Be Me
TTITLE1=Tomorrow Never Comes
TTITLE2=Guess I'm Dumb
TTITLE3=Second To None
TTITLE4=Cryin'
TTITLE5=By the Time I Get to Phoenix
TTITLE6=They'll Never Take Her Love Away From Me
TTITLE7=Poor Boy Lookin for A Home
TTITLE8=Wichita Lineman
TTITLE9=Back in the Race
TTITLE10=Where's The Playground Susie
TTITLE11=Catch The Wind
TTITLE12=Love Me As Though There Was No Tomorrow
TTITLE13=Just Another Man
TTITLE14=Folk Singer
TTITLE15=I'm So Lonesome I Could Cry
TTITLE16=Bonaparte's Retreat
TTITLE17=(Love Always) Letter To Home
TTITLE18=It's Just A Matter Of Time (LP Version)
TTITLE19=A Lady Like You
TTITLE20=Call Home
EXTD=
EXTT0=
EXTT1=
EXTT2=
EXTT3=
EXTT4=
EXTT5=
EXTT6=
EXTT7=
EXTT8=
EXTT9=
EXTT10=
EXTT11=
EXTT12=
EXTT13=
EXTT14=
EXTT15=
EXTT16=
EXTT17=
EXTT18=
EXTT19=
EXTT20=
PLAYORDER=
